<svg xmlns="http://www.w3.org/2000/svg" width="900" height="320" viewBox="0 0 900 320">
<style>text{font-family:Menlo,monospace;font-size:12px} .title{font-size:16px;font-weight:bold}</style>
<text class="title" x="60" y="30">RSS After First Diagnostics (MB)</text>
<line x1="60" y1="260" x2="840" y2="260" stroke="black"/>
<line x1="60" y1="60" x2="60" y2="260" stroke="black"/>
<line x1="56" y1="260.0" x2="840" y2="260.0" stroke="#ddd"/>
<text x="8" y="264.0">0</text>
<line x1="56" y1="220.0" x2="840" y2="220.0" stroke="#ddd"/>
<text x="8" y="224.0">1212</text>
<line x1="56" y1="180.0" x2="840" y2="180.0" stroke="#ddd"/>
<text x="8" y="184.0">2424</text>
<line x1="56" y1="140.0" x2="840" y2="140.0" stroke="#ddd"/>
<text x="8" y="144.0">3636</text>
<line x1="56" y1="100.0" x2="840" y2="100.0" stroke="#ddd"/>
<text x="8" y="104.0">4848</text>
<line x1="56" y1="60.0" x2="840" y2="60.0" stroke="#ddd"/>
<text x="8" y="64.0">6060</text>
<rect x="60" y="134.2" width="70" height="125.8" fill="#c44"/>
<text x="68" y="128.2">3812</text>
<text x="68" y="278">before</text>
<rect x="150" y="233.9" width="70" height="26.1" fill="#2a7"/>
<text x="158" y="227.9">789</text>
<text x="158" y="278">after</text>
<text x="80" y="302">alexandria</text>
<rect x="280" y="78.2" width="70" height="181.8" fill="#c44"/>
<text x="288" y="72.2">5509</text>
<text x="288" y="278">before</text>
<rect x="370" y="193.1" width="70" height="66.9" fill="#2a7"/>
<text x="378" y="187.1">2026</text>
<text x="378" y="278">after</text>
<text x="300" y="302">openzeppelin</text>
</svg>